<svg width="260" height="266" viewBox="0 0 260 266" fill="none" xmlns="http://www.w3.org/2000/svg">
<rect width="259.906" height="265.682" rx="53.819" fill="black"/>
<path d="M201.019 106.161L169.495 124.445C169.495 124.445 154.995 133.271 145.538 148.717C136.081 164.164 130.091 181.029 130.091 181.029C130.091 181.029 124.732 164.006 115.118 148.717C105.503 133.429 90.5297 124.287 90.5297 124.287L74.2952 114.909L59.1641 106.161C59.1641 106.161 60.2674 112.781 62.6316 118.928C64.9959 125.075 68.8969 127.282 69.882 128.07C71.828 129.627 87.0621 138.451 87.0621 138.451C87.0621 138.451 99.5138 146.511 102.508 156.756C104.29 162.851 97.1495 169.365 97.1495 169.365L130.091 218.384L163.033 169.208C163.033 169.208 155.318 164.321 158.305 155.495C161.291 146.668 174.224 137.842 174.224 137.842L189.197 128.858C189.197 128.858 193.644 126.494 196.921 120.189C199.132 115.933 201.019 106.161 201.019 106.161Z" fill="url(#paint0_linear_29_149)"/>
<path d="M156.571 91.503L130.092 48.001L103.297 91.503C103.297 91.503 112.439 96.2315 120.162 106.477C127.885 116.722 130.092 129.804 130.092 129.804C130.092 129.804 133.559 116.722 140.967 106.477C148.375 96.2315 156.571 91.503 156.571 91.503Z" fill="url(#paint1_linear_29_149)"/>
<path d="M93.2098 117.51L55.3817 95.4436C55.3817 95.4436 46.2623 91.1879 41.1965 82.5191C36.1308 73.8502 33.0006 56.8276 33.0006 56.8276L77.6059 82.8343C77.6059 82.8343 95.5741 93.2369 96.8351 94.1826C98.096 95.1283 114.646 104.585 122.368 122.081C130.091 139.576 129.934 144.777 129.934 144.777L129.934 167.317C129.934 167.317 126.94 154.077 118.586 140.995C110.232 127.912 93.2098 117.51 93.2098 117.51Z" fill="url(#paint2_linear_29_149)"/>
<path d="M166.816 117.51L204.644 95.4436C204.644 95.4436 213.763 91.1879 218.829 82.5191C223.895 73.8502 227.025 56.8276 227.025 56.8276L182.42 82.8343C182.42 82.8343 164.452 93.2369 163.191 94.1826C161.93 95.1283 145.38 104.585 137.657 122.081C129.934 139.576 129.934 144.777 129.934 144.777L129.934 167.317C129.934 167.317 133.086 154.077 141.44 140.995C149.793 127.912 166.816 117.51 166.816 117.51Z" fill="url(#paint3_linear_29_149)"/>
<defs>
<linearGradient id="paint0_linear_29_149" x1="159.837" y1="94.057" x2="109.799" y2="213.819" gradientUnits="userSpaceOnUse">
<stop stop-color="#FFDD54"/>
<stop offset="1" stop-color="#998432"/>
</linearGradient>
<linearGradient id="paint1_linear_29_149" x1="141.105" y1="39.1779" x2="90.9417" y2="101.035" gradientUnits="userSpaceOnUse">
<stop stop-color="#FFDD54"/>
<stop offset="1" stop-color="#998432"/>
</linearGradient>
<linearGradient id="paint2_linear_29_149" x1="61.1415" y1="44.9105" x2="122.337" y2="146.567" gradientUnits="userSpaceOnUse">
<stop stop-color="#FFDD54"/>
<stop offset="1" stop-color="#998432"/>
</linearGradient>
<linearGradient id="paint3_linear_29_149" x1="198.839" y1="44.9105" x2="137.69" y2="146.654" gradientUnits="userSpaceOnUse">
<stop stop-color="#FFDD54"/>
<stop offset="1" stop-color="#998432"/>
</linearGradient>
</defs>
</svg>
