<svg width="260" height="266" viewBox="0 0 260 266" fill="none" xmlns="http://www.w3.org/2000/svg">
<rect width="259.906" height="265.682" rx="53.819" fill="white"/>
<path d="M201.02 106.16L169.496 124.444C169.496 124.444 154.996 133.27 145.539 148.716C136.082 164.163 130.092 181.028 130.092 181.028C130.092 181.028 124.733 164.005 115.119 148.716C105.504 133.428 90.5306 124.286 90.5306 124.286L74.2962 114.908L59.165 106.16C59.165 106.16 60.2684 112.78 62.6326 118.927C64.9968 125.074 68.8978 127.281 69.8829 128.069C71.829 129.626 87.0631 138.45 87.0631 138.45C87.0631 138.45 99.5148 146.51 102.509 156.755C104.291 162.85 97.1505 169.364 97.1505 169.364L130.092 218.383L163.034 169.207C163.034 169.207 155.319 164.32 158.306 155.494C161.292 146.667 174.225 137.841 174.225 137.841L189.198 128.857C189.198 128.857 193.645 126.493 196.921 120.188C199.133 115.932 201.02 106.16 201.02 106.16Z" fill="black" stroke="black" stroke-width="0.262532"/>
<path d="M156.571 91.502L130.092 48L103.297 91.502C103.297 91.502 112.439 96.2305 120.162 106.476C127.885 116.721 130.092 129.803 130.092 129.803C130.092 129.803 133.559 116.721 140.967 106.476C148.375 96.2305 156.571 91.502 156.571 91.502Z" fill="black" stroke="black" stroke-width="0.262532"/>
<path d="M93.2098 117.509L55.3817 95.4431C55.3817 95.4431 46.2623 91.1875 41.1965 82.5186C36.1308 73.8497 33.0006 56.8271 33.0006 56.8271L77.6059 82.8338C77.6059 82.8338 95.5741 93.2365 96.8351 94.1822C98.096 95.1279 114.646 104.585 122.368 122.08C130.091 139.576 129.934 144.777 129.934 144.777L129.934 167.316C129.934 167.316 126.94 154.076 118.586 140.994C110.232 127.912 93.2098 117.509 93.2098 117.509Z" fill="black" stroke="black" stroke-width="0.262532"/>
<path d="M166.816 117.509L204.644 95.4431C204.644 95.4431 213.763 91.1875 218.829 82.5186C223.895 73.8497 227.025 56.8271 227.025 56.8271L182.42 82.8338C182.42 82.8338 164.452 93.2365 163.191 94.1822C161.93 95.1279 145.38 104.585 137.657 122.08C129.934 139.576 129.934 144.777 129.934 144.777L129.934 167.316C129.934 167.316 133.086 154.076 141.44 140.994C149.793 127.912 166.816 117.509 166.816 117.509Z" fill="black" stroke="black" stroke-width="0.262532"/>
</svg>
