<svg width="260" height="266" viewBox="0 0 260 266" fill="none" xmlns="http://www.w3.org/2000/svg">
<rect width="259.906" height="265.682" rx="53.819" fill="#00321C"/>
<path d="M201.02 106.161L169.496 124.445C169.496 124.445 154.996 133.271 145.539 148.717C136.082 164.164 130.092 181.029 130.092 181.029C130.092 181.029 124.733 164.006 115.119 148.717C105.504 133.429 90.5306 124.287 90.5306 124.287L74.2962 114.909L59.165 106.161C59.165 106.161 60.2684 112.781 62.6326 118.928C64.9968 125.075 68.8978 127.282 69.8829 128.07C71.829 129.627 87.0631 138.451 87.0631 138.451C87.0631 138.451 99.5148 146.511 102.509 156.756C104.291 162.851 97.1505 169.365 97.1505 169.365L130.092 218.384L163.034 169.208C163.034 169.208 155.319 164.321 158.306 155.495C161.292 146.668 174.225 137.842 174.225 137.842L189.198 128.858C189.198 128.858 193.645 126.494 196.921 120.189C199.133 115.933 201.02 106.161 201.02 106.161Z" fill="url(#paint0_linear_29_157)"/>
<path d="M156.571 91.503L130.092 48.001L103.297 91.503C103.297 91.503 112.439 96.2315 120.162 106.477C127.885 116.722 130.092 129.804 130.092 129.804C130.092 129.804 133.559 116.722 140.967 106.477C148.375 96.2315 156.571 91.503 156.571 91.503Z" fill="url(#paint1_linear_29_157)"/>
<path d="M93.2098 117.51L55.3817 95.4436C55.3817 95.4436 46.2623 91.1879 41.1965 82.5191C36.1308 73.8502 33.0006 56.8276 33.0006 56.8276L77.6059 82.8343C77.6059 82.8343 95.5741 93.2369 96.8351 94.1826C98.096 95.1283 114.646 104.585 122.368 122.081C130.091 139.576 129.934 144.777 129.934 144.777L129.934 167.317C129.934 167.317 126.94 154.077 118.586 140.995C110.232 127.912 93.2098 117.51 93.2098 117.51Z" fill="url(#paint2_linear_29_157)"/>
<path d="M166.817 117.51L204.645 95.4436C204.645 95.4436 213.764 91.1879 218.83 82.5191C223.896 73.8502 227.026 56.8276 227.026 56.8276L182.421 82.8343C182.421 82.8343 164.453 93.2369 163.192 94.1826C161.931 95.1283 145.381 104.585 137.658 122.081C129.935 139.576 129.935 144.777 129.935 144.777L129.935 167.317C129.935 167.317 133.087 154.077 141.441 140.995C149.794 127.912 166.817 117.51 166.817 117.51Z" fill="url(#paint3_linear_29_157)"/>
<defs>
<linearGradient id="paint0_linear_29_157" x1="159.838" y1="94.057" x2="109.8" y2="213.819" gradientUnits="userSpaceOnUse">
<stop stop-color="#FFDD54"/>
<stop offset="1" stop-color="#998432"/>
</linearGradient>
<linearGradient id="paint1_linear_29_157" x1="141.105" y1="39.1779" x2="90.9417" y2="101.035" gradientUnits="userSpaceOnUse">
<stop stop-color="#FFDD54"/>
<stop offset="1" stop-color="#998432"/>
</linearGradient>
<linearGradient id="paint2_linear_29_157" x1="61.1415" y1="44.9105" x2="122.337" y2="146.567" gradientUnits="userSpaceOnUse">
<stop stop-color="#FFDD54"/>
<stop offset="1" stop-color="#998432"/>
</linearGradient>
<linearGradient id="paint3_linear_29_157" x1="198.839" y1="44.9105" x2="137.691" y2="146.654" gradientUnits="userSpaceOnUse">
<stop stop-color="#FFDD54"/>
<stop offset="1" stop-color="#998432"/>
</linearGradient>
</defs>
</svg>
